<?xml version="1.0" ?><!DOCTYPE svg  PUBLIC '-//W3C//DTD SVG 1.1//EN'  'http://www.w3.org/Graphics/SVG/1.1/DTD/svg11.dtd'><svg enable-background="new 0 0 100 100" height="100px" id="Layer_1" version="1.1" viewBox="0 0 100 100" width="100px" xml:space="preserve" xmlns="http://www.w3.org/2000/svg" xmlns:xlink="http://www.w3.org/1999/xlink"><path d="M50,3.84C24.506,3.84,3.84,24.506,3.84,50S24.506,96.16,50,96.16S96.16,75.494,96.16,50S75.494,3.84,50,3.84  z M68.443,55.236c-2.041,4.661-7.321,8.458-12.477,8.743c-3.458,0.19-7.559-0.213-9.228-3.617c-0.222,1.646-1.349,6.235-1.822,7.879  c-0.513,1.778-0.976,4.303-2.41,5.609c-0.781,0.711-4.083,2.523-4.96,0.212c-1.149-3.025,1.307-10.038,2.229-13.464  c0.495-1.846,0.794-3.653,1.084-5.538c0.242-1.564,0.927-3.051,0.999-4.643c0.075-1.64-0.479-3.24-0.521-4.874  c-0.041-1.697-0.009-3.551,0.883-5.055c1.457-2.457,5.224-4.349,7.787-2.488c2.329,1.689,1.88,5.309,1.017,7.68  c-0.618,1.696-1.104,3.147-1.455,4.938c-0.249,1.264-0.524,3.153-1.084,4.259c1.803,1.834,2.559,3.712,5.479,3.692  c2.121-0.013,4.271-1.167,5.543-2.862c1.242-1.654,2.362-3.592,3.176-5.492c1.242-2.902,1.07-6.636,0.781-9.722  c-0.285-3.03-1.847-5.802-4.286-7.619c-5.827-4.338-15.554-3.38-20.228,2.27c-2.822,3.413-4.207,8.168-3.721,12.573  c0.166,1.505,1.443,2.497,2.145,3.756c0.65,1.167,0.577,3.941-0.584,4.936c-1.171,1.001-2.951-0.972-3.821-1.774  c-2.488-2.295-3.557-5.208-4.065-8.489c-0.288-1.862-0.16-4.048,0.481-5.744c0.723-1.906,1.23-3.806,2.439-5.362  c1.019-1.311,2.145-2.79,3.279-4.018c1.06-1.147,2.341-1.88,3.826-2.624c1.581-0.793,3.047-1.816,4.694-2.388  c1.86-0.646,3.683-0.93,5.619-1.094c3.173-0.268,7.255-0.155,10.229,1.29c2.384,1.158,4.991,2.693,6.977,4.639  c2.607,2.556,4.35,6.914,4.703,10.467C71.609,45.919,70.283,51.034,68.443,55.236z" fill="#C1404A"/></svg>